<svg xmlns="http://www.w3.org/2000/svg" viewBox="0 0 1114.31 599.98"><defs><style>.cls-1{fill:#56b25c;}.cls-2{fill:#344c9c;}.cls-3{fill:none;}</style></defs><g id="Camada_2" data-name="Camada 2"><path class="cls-1" d="M2226.28,681.67c-.88.27-2.07.67-3.44,1.2a60.38,60.38,0,0,0-26.92,21.27,63.6,63.6,0,0,0-6,10.27l-354.07-.27c.56-3.62,1.48-8.76,3-14.82,11.87-48.39,41.58-79.21,51.6-89.37,14.94-15.13,49-44.88,101.93-56.33a205.62,205.62,0,0,1,181.44,49.56,199.42,199.42,0,0,1,47.79,66.49C2223.38,673.78,2224.92,677.8,2226.28,681.67Z" transform="translate(-1835.89 -114.64)"/></g><g id="Camada_4" data-name="Camada 4"><path class="cls-1" d="M2302.62,714.56l-65.67-.13a104.06,104.06,0,0,0-2.22-11,168.14,168.14,0,0,0-7.84-21.92c.43-.16.83-.28,1.21-.4,16.55-5.29,41.31-4.31,59.34,11.85A60.76,60.76,0,0,1,2302.62,714.56Z" transform="translate(-1835.89 -114.64)"/></g><g id="Camada_5" data-name="Camada 5"><path class="cls-2" d="M2234.58,714.43h0l-44.62,0a63.6,63.6,0,0,1,6-10.27,60.38,60.38,0,0,1,26.92-21.27c1.37-.53,2.56-.93,3.44-1.2a0,0,0,0,1,0,0c-.66.24-1.39.53-2.24.89-16.12,6.91-24.16,22.33-27.94,31.76Z" transform="translate(-1835.89 -114.64)"/><path class="cls-2" d="M2234.58,714.43l-38.47-.08c3.78-9.43,11.82-24.85,27.94-31.76.85-.36,1.58-.65,2.24-.89A190.52,190.52,0,0,1,2234.58,714.43Z" transform="translate(-1835.89 -114.64)"/><path class="cls-2" d="M2237,714.43h-2.37a190.52,190.52,0,0,0-8.29-32.73l.6-.19a168.14,168.14,0,0,1,7.84,21.92A104.06,104.06,0,0,1,2237,714.43Z" transform="translate(-1835.89 -114.64)"/><path class="cls-3" d="M2226.29,681.7a0,0,0,0,0,0,0c.22-.08.42-.14.6-.19v0Z" transform="translate(-1835.89 -114.64)"/><path class="cls-3" d="M2237,714.62h-47.12a2,2,0,0,1,.1-.21l44.62,0H2237Z" transform="translate(-1835.89 -114.64)"/></g><g id="Camada_6" data-name="Camada 6"><path class="cls-1" d="M2857,681.67a72.54,72.54,0,0,1-5.36,21.46,75.31,75.31,0,0,1-5.94,11.43h-124.6c-1-1.24-2.19-3.48-3.58-5.78-15.45-25.7-5.14-56.17-4.23-58.73,9.19-25.91,30.05-37.85,34.73-40.38a73.3,73.3,0,0,1,89.22,14.68,76.68,76.68,0,0,1,17.79,33A74.18,74.18,0,0,1,2857,681.67Z" transform="translate(-1835.89 -114.64)"/></g><g id="Camada_7" data-name="Camada 7"><path class="cls-1" d="M2950.2,114.64c-.58,1.29-1.44,3-2.54,5.29A226,226,0,0,1,2932,147c-20.16,28.88-55.48,48.7-55.48,48.7-38.72,21.72-74.45,22.76-82.17,22.87a173.49,173.49,0,0,1-58.45-9.74,176,176,0,0,1-53.78-30.07c-20.85-17.08-33-35.18-36.43-41.08-.51-.9-4.5-7.91-9.32-17.37-1.3-2.56-2.07-4.39-2.7-5.66Z" transform="translate(-1835.89 -114.64)"/></g></svg>